<svg xmlns="http://www.w3.org/2000/svg" viewBox="0 0 145 145" width="145" height="145">
  <defs>
    <radialGradient id="bg" cx="50%" cy="50%" r="50%">
      <stop offset="0%" stop-color="#38bdf8"/>
      <stop offset="60%" stop-color="#0369a1"/>
      <stop offset="100%" stop-color="#0c1a2e"/>
    </radialGradient>
  </defs>
  <circle cx="72.5" cy="72.5" r="72.5" fill="url(#bg)"/>
  <!-- wavy lines -->
  <path d="M20 55 Q35 45 50 55 Q65 65 80 55 Q95 45 110 55 Q120 60 125 55" fill="none" stroke="#7dd3fc" stroke-width="2" opacity="0.6"/>
  <path d="M15 70 Q30 60 45 70 Q60 80 75 70 Q90 60 105 70 Q118 78 128 70" fill="none" stroke="#38bdf8" stroke-width="2" opacity="0.5"/>
  <path d="M18 85 Q33 75 48 85 Q63 95 78 85 Q93 75 108 85 Q120 92 130 85" fill="none" stroke="#7dd3fc" stroke-width="2" opacity="0.4"/>
  <!-- sunglasses shape -->
  <rect x="50" y="62" width="18" height="12" rx="6" fill="none" stroke="#bae6fd" stroke-width="2"/>
  <rect x="76" y="62" width="18" height="12" rx="6" fill="none" stroke="#bae6fd" stroke-width="2"/>
  <line x1="68" y1="68" x2="76" y2="68" stroke="#bae6fd" stroke-width="2"/>
  <line x1="46" y1="68" x2="50" y2="68" stroke="#bae6fd" stroke-width="2"/>
  <line x1="94" y1="68" x2="98" y2="68" stroke="#bae6fd" stroke-width="2"/>
</svg>
